<?xml version="1.0" encoding="utf-8"?>
<!-- Generator: Adobe Illustrator 24.0.3, SVG Export Plug-In . SVG Version: 6.00 Build 0)  -->
<svg version="1.1" id="Capa_1" xmlns="http://www.w3.org/2000/svg" xmlns:xlink="http://www.w3.org/1999/xlink" x="0px" y="0px"
	 width="156.5px" height="138.2px" viewBox="0 0 156.5 138.2" style="enable-background:new 0 0 156.5 138.2;" xml:space="preserve"
	>
<style type="text/css">
	.st0{fill:#07498B;}
	.st1{fill:#E00B1E;}
	.st2{fill:#FFFFFF;}
</style>
<g>
	<path class="st0" d="M12,79.4V59.5c0-1.5,0.6-2.8,1.7-3.7c0.4-0.4,0.9-0.7,1.3-0.8c0.4-0.1,1.1-0.2,1.9-0.2h1.3v3.1H17
		c-1.2,0-1.9,0.7-1.9,2.2v0.9h3.1V64h-3.1v15.4H12z"/>
	<path class="st0" d="M35.6,79.4H25.3c-1.5,0-2.7-0.4-3.7-1.3c-0.9-0.9-1.4-2.1-1.4-3.6v-8.3c0-3.6,1.9-5.3,5.7-5.3h4.6
		c1.6,0,2.8,0.4,3.6,1.2c0.9,0.8,1.3,2,1.3,3.5v2.2l-12.1,5.6v0.6l0.1,0.8c0.1,0.3,0.1,0.4,0.1,0.5c0,0.1,0.1,0.2,0.2,0.3
		c0.2,0.4,0.8,0.7,1.7,0.7h10.2V79.4z M23.3,66.3l0,3.7l9-4.2l0-0.3c0-0.6-0.1-1-0.4-1.2c-0.3-0.2-0.8-0.3-1.5-0.3h-5
		C24,64,23.3,64.8,23.3,66.3z"/>
	<path class="st0" d="M39.3,79.4V65.8c0-1.7,0.3-2.9,1-3.7c0.4-0.3,0.9-0.6,1.6-0.9c0.7-0.2,1.3-0.4,2-0.4h1.7V64h-1.5
		c-1.1,0-1.7,0.6-1.7,1.8v13.5H39.3z"/>
	<path class="st0" d="M48,79.4V65.8c0-1.7,0.3-2.9,1-3.7c0.4-0.3,0.9-0.6,1.6-0.9c0.7-0.2,1.3-0.4,2-0.4h1.7V64h-1.5
		c-1.1,0-1.7,0.6-1.7,1.8v13.5H48z"/>
	<path class="st0" d="M72.1,79.4H61.8c-1.5,0-2.7-0.4-3.7-1.3c-0.9-0.9-1.4-2.1-1.4-3.6v-8.3c0-3.6,1.9-5.3,5.7-5.3H67
		c1.6,0,2.8,0.4,3.6,1.2c0.9,0.8,1.3,2,1.3,3.5v2.2l-12.1,5.6v0.6l0.1,0.8c0.1,0.3,0.1,0.4,0.1,0.5c0,0.1,0.1,0.2,0.2,0.3
		c0.2,0.4,0.8,0.7,1.7,0.7h10.2V79.4z M59.9,66.3l0,3.7l9-4.2l0-0.3c0-0.6-0.1-1-0.4-1.2c-0.3-0.2-0.8-0.3-1.5-0.3h-5
		C60.5,64,59.9,64.8,59.9,66.3z"/>
	<path class="st0" d="M75.8,79.4V54.8h3.1v6.2H82V64h-3.1v15.4H75.8z"/>
	<path class="st0" d="M98.6,79.4H88.3c-1.5,0-2.7-0.4-3.7-1.3c-0.9-0.9-1.4-2.1-1.4-3.6v-8.3c0-3.6,1.9-5.3,5.7-5.3h4.6
		c1.6,0,2.8,0.4,3.6,1.2c0.9,0.8,1.3,2,1.3,3.5v2.2l-12.1,5.6v0.6l0.1,0.8c0.1,0.3,0.1,0.4,0.1,0.5c0,0.1,0.1,0.2,0.2,0.3
		c0.2,0.4,0.8,0.7,1.7,0.7h10.2V79.4z M86.3,66.3l0,3.7l9-4.2l0-0.3c0-0.6-0.1-1-0.4-1.2c-0.3-0.2-0.8-0.3-1.5-0.3h-5
		C87,64,86.3,64.8,86.3,66.3z"/>
	<path class="st0" d="M102.5,79.4V65.8c0-1.7,0.3-2.9,1-3.7c0.4-0.3,0.9-0.6,1.6-0.9c0.7-0.2,1.3-0.4,2-0.4h1.7V64h-1.5
		c-1.1,0-1.7,0.6-1.7,1.8v13.5H102.5z"/>
	<path class="st0" d="M110.9,59.2l1.7-4.7h4.1l-3.2,4.7H110.9z M111.2,79.4V60.9h3.1v18.5H111.2z"/>
	<path class="st0" d="M118.4,60.9h10.9c0.8,0,1.5,0.1,1.9,0.2c0.4,0.1,0.8,0.4,1.2,0.9c0.4,0.4,0.8,0.9,1,1.5
		c0.2,0.6,0.4,1.1,0.4,1.7v9.5c0,1.2-0.5,2.3-1.4,3.3c-0.9,1-2,1.4-3.1,1.4h-6.2c-1.2,0-2.3-0.5-3.3-1.5c-1-1-1.4-2.2-1.4-3.5v-2.2
		c0-1.8,0.4-3.3,1.2-4.3c0.8-1,2-1.5,3.5-1.5h7.6v-1.2c0-0.9-0.6-1.3-1.8-1.3h-10.5V60.9z M122.2,76c0.3,0.2,0.9,0.3,1.8,0.3h4.2
		c0.9,0,1.5-0.1,1.7-0.3c0.2-0.2,0.4-0.4,0.6-0.7c0.1-0.3,0.2-0.6,0.2-0.8v-3c0-0.6-0.2-1.1-0.7-1.5c-0.4-0.4-1.1-0.5-1.8-0.5h-4.3
		c-0.7,0-1.3,0.2-1.8,0.5c-0.5,0.4-0.7,0.9-0.7,1.5v3c0,0.2,0.1,0.5,0.2,0.8C121.8,75.6,122,75.9,122.2,76z"/>
	<path class="st0" d="M137.3,79.4v-3.1h8.7h0.8c0.8,0,1.3-0.6,1.3-1.8v-1.4c0-1.2-0.6-1.7-1.8-1.7h-4.2c-1.4,0-2.5-0.3-3.2-0.9
		c-0.4-0.3-0.8-0.8-1.1-1.3c-0.3-0.6-0.4-1.1-0.4-1.7v-2.3c0-1.3,0.4-2.4,1.1-3.1c0.7-0.8,1.7-1.1,3-1.1h9.6V64h-8.7h-0.6
		c-0.4,0-0.7,0.1-1,0.4c-0.3,0.3-0.4,0.6-0.4,1v1.3c0,0.4,0.2,0.8,0.5,1.1c0.3,0.3,0.7,0.4,1.2,0.4h4.6c1.2,0,2.2,0.4,3.1,1.3
		c0.9,0.8,1.3,1.8,1.3,3v2.9c0,1-0.4,2-1.2,2.8c-0.8,0.8-1.7,1.2-2.8,1.2H137.3z"/>
</g>
<g>
	<path class="st0" d="M4.8,117.5l10.6-29c0.5-1.3,1-2.2,1.5-2.6c0.5-0.5,1.2-0.7,2.2-0.7c1,0,1.8,0.2,2.3,0.7c0.5,0.5,1,1.4,1.6,2.7
		l10.6,29l-5,0l-2.4-6.7H12.2l-2.4,6.7L4.8,117.5z M19,91.6l-5.1,14.5h10.4L19,91.6z"/>
	<path class="st0" d="M35.9,117.5V89.9c0-1.6,0.3-2.8,1-3.5c0.6-0.7,1.7-1.1,3.1-1.1c1,0,1.9,0.2,2.5,0.7c0.6,0.5,1.2,1.3,1.7,2.4
		l9.7,23.5V85.5h4.6v28.2c0,1.2-0.4,2.3-1.1,3.1c-0.8,0.8-1.7,1.2-2.9,1.2c-1.9,0-3.2-1.1-4.1-3.3l-9.7-23.1v25.9H35.9z"/>
	<path class="st0" d="M64,117.5v-32h16.2c2,0,3.6,0.7,4.8,2.1c1.3,1.4,1.9,3.2,1.9,5.3v16.4c0,2.3-0.7,4.2-2.2,5.8
		c-1.5,1.6-3.3,2.4-5.4,2.4H64z M68.7,90.1v22.7h10.5c2.2,0,3.2-1.3,3.2-3.8V93.8c0-1.4-0.2-2.3-0.7-2.9c-0.5-0.5-1.4-0.8-2.6-0.8
		H68.7z"/>
	<path class="st0" d="M92.7,117.5v-32h4.6v32H92.7z"/>
	<path class="st0" d="M102.9,117.5V89.9c0-1.6,0.3-2.8,1-3.5c0.6-0.7,1.7-1.1,3.1-1.1c1,0,1.9,0.2,2.5,0.7c0.6,0.5,1.2,1.3,1.7,2.4
		l9.7,23.5V85.5h4.6v28.2c0,1.2-0.4,2.3-1.1,3.1c-0.8,0.8-1.7,1.2-2.9,1.2c-1.9,0-3.2-1.1-4.1-3.3l-9.7-23.1v25.9H102.9z"/>
	<path class="st0" d="M127.8,117.5l10.6-29c0.5-1.3,1-2.2,1.5-2.6c0.5-0.5,1.2-0.7,2.2-0.7c1,0,1.8,0.2,2.3,0.7
		c0.5,0.5,1,1.4,1.6,2.7l10.6,29l-5,0l-2.4-6.7h-13.9l-2.4,6.7L127.8,117.5z M142.1,91.6l-5.1,14.5h10.4L142.1,91.6z"/>
</g>
<polygon class="st0" points="81.5,-0.1 58.6,44.7 104.4,44.7 "/>
<g>
	<rect x="0" y="125.7" class="st1" width="156.5" height="12.1"/>
	<g>
		<path class="st2" d="M113.1,136.8l2.3-10.1h5.3l2.1,5.3l2.1-5.3h5.2l2.4,10.1h-4.7l-1-5.8l-2.3,5.8h-3.1l-2.3-5.8l-1.1,5.8H113.1z
			"/>
		<path class="st2" d="M134.3,130h-2.7v-3.3h11v3.3h-2.8v6.8h-5.5V130z"/>
		<path class="st2" d="M149.9,130.4c-1.5-0.1-1.8-0.4-1.8-0.7c0-0.4,0.3-0.6,1.4-0.6c1.3,0,2.8,0.7,2.8,0.7l1.4-2.4
			c0,0-1.8-1.1-4.9-1.1c-3.5,0-5.6,1.8-5.6,3.8c0,1.7,1.5,2.7,4,2.9c1.5,0.1,1.8,0.3,1.8,0.7s-0.8,0.5-1.6,0.5
			c-1.1,0-3.2-0.9-3.2-0.9l-1.6,2.6c0,0,1.6,1.2,5.2,1.2c3.6,0,6.4-1.5,6.4-3.7C154.2,130.6,151.4,130.5,149.9,130.4z"/>
	</g>
</g>
</svg>
